<?xml version="1.0" standalone="no"?>
<!DOCTYPE svg PUBLIC "-//W3C//DTD SVG 20010904//EN"
 "http://www.w3.org/TR/2001/REC-SVG-20010904/DTD/svg10.dtd">
<svg version="1.0" xmlns="http://www.w3.org/2000/svg"
 width="1024.000000pt" height="1024.000000pt" viewBox="0 0 1024.000000 1024.000000"
 preserveAspectRatio="xMidYMid meet">

<g transform="translate(0.000000,1024.000000) scale(0.100000,-0.100000)"
fill="#000000" stroke="none">
<path d="M3053 6959 c-123 -12 -230 -92 -273 -206 -20 -54 -20 -63 -18 -1716
l3 -1662 24 -50 c33 -65 99 -130 164 -161 l52 -24 1777 0 1776 0 69 -73 c213
-228 629 -665 652 -684 50 -44 146 -22 240 55 96 78 141 154 141 239 0 52 -2
56 -62 121 -34 37 -124 130 -199 206 l-138 140 48 27 c64 37 125 108 153 178
l23 56 0 1650 0 1650 -33 67 c-38 77 -92 130 -171 167 l-56 26 -2055 0 c-1130
0 -2083 -3 -2117 -6z m124 -217 c6 -4 16 -19 22 -33 21 -57 -43 -109 -97 -78
-34 18 -42 71 -16 100 17 19 68 25 91 11z m287 -14 c35 -49 4 -108 -56 -108
-41 0 -68 25 -68 63 0 43 25 67 71 67 28 0 42 -6 53 -22z m268 5 c26 -23 24
-78 -4 -97 -69 -49 -150 24 -102 92 19 27 78 30 106 5z m1643 -193 c428 -73
821 -343 1037 -713 22 -37 38 -72 36 -77 -5 -17 -200 139 -298 239 -129 132
-191 182 -314 256 -131 79 -223 117 -371 155 -235 61 -468 62 -688 5 -521
-135 -916 -553 -1025 -1085 -14 -71 -17 -138 -16 -400 0 -277 3 -328 21 -420
11 -58 19 -107 17 -109 -6 -7 -64 130 -94 219 -48 147 -65 266 -65 450 1 358
101 642 330 935 217 278 558 483 905 545 148 26 372 26 525 0z m-1750 -120
l720 0 -75 -48 c-85 -55 -174 -124 -241 -189 l-46 -44 -392 1 -391 0 -25 -24
-25 -25 0 -480 0 -480 24 -28 24 -28 170 0 c94 0 173 -2 175 -5 2 -3 7 -51 11
-107 l6 -103 -185 0 c-172 0 -186 -1 -205 -20 -19 -19 -20 -33 -20 -294 l0
-275 24 -28 24 -28 303 -3 304 -4 42 -62 c23 -33 72 -94 108 -133 l67 -73
-413 0 c-508 0 -459 20 -459 -186 0 -137 1 -144 24 -171 l24 -28 609 -3 c334
-1 658 1 718 6 98 6 118 5 189 -15 279 -80 604 -68 902 32 115 38 192 75 307
146 43 27 83 49 88 49 6 0 73 -62 150 -137 128 -126 140 -140 135 -166 -7 -33
11 -72 49 -107 15 -14 54 -55 87 -92 l60 -68 -1739 3 c-1685 2 -1739 3 -1773
21 -64 35 -96 65 -126 118 l-29 53 -3 1505 c-1 828 0 1511 3 1519 4 10 16 12
43 7 20 -3 361 -6 757 -6z m3790 0 c3 -4 5 -681 5 -1504 0 -1473 0 -1498 -19
-1542 -11 -25 -30 -59 -42 -76 -26 -36 -104 -88 -134 -88 -13 0 -111 91 -290
271 -247 247 -273 270 -300 267 -27 -3 -44 11 -179 149 l-150 153 24 25 23 25
358 0 c310 0 358 2 369 16 11 12 11 18 -1 29 -12 12 -72 15 -336 15 -178 1
-325 5 -328 10 -3 5 6 26 21 47 14 21 41 66 60 100 l35 62 254 3 c252 3 254 3
279 27 l26 24 0 191 c0 254 17 236 -225 236 -100 0 -184 2 -186 4 -2 2 -2 51
1 108 l5 103 65 0 c277 2 290 4 315 30 l25 24 0 479 c0 457 -1 481 -19 503
l-19 24 -397 3 -396 3 -111 95 c-61 52 -142 113 -179 137 -38 23 -68 46 -69
50 0 10 1509 7 1515 -3z m-2054 -25 c185 -33 397 -124 562 -243 104 -74 263
-240 330 -343 108 -166 181 -347 212 -523 19 -114 19 -333 0 -455 -50 -308
-227 -610 -481 -820 -278 -230 -632 -342 -976 -311 -438 40 -799 266 -1050
656 -85 131 -159 332 -184 496 -21 133 -14 366 15 488 54 235 149 425 302 606
212 250 532 422 862 464 95 12 301 5 408 -15z m-1431 -319 c0 -2 -16 -24 -37
-48 -49 -58 -148 -210 -185 -283 -73 -144 -133 -356 -153 -542 l-7 -63 -163 0
-162 0 -7 31 c-8 42 -8 894 1 902 7 7 713 10 713 3z m3098 -446 c1 -245 0
-455 -3 -467 -5 -23 -7 -23 -174 -23 l-168 0 -7 78 c-24 272 -122 527 -287
748 -43 59 -79 108 -79 110 0 2 161 3 358 2 l357 -3 3 -445z m-3448 -892 c21
-105 75 -259 124 -356 25 -50 46 -94 46 -97 0 -3 -119 -5 -264 -5 l-263 0 -7
31 c-8 42 -8 474 1 482 3 4 84 7 178 7 l172 0 13 -62z m3448 -93 c1 -82 0
-160 -3 -172 l-5 -23 -229 0 -228 0 37 108 c21 59 43 137 50 175 l12 67 182
-2 181 -3 3 -150z m-613 -332 c-121 -222 -362 -455 -607 -586 -342 -182 -780
-224 -1128 -107 -84 28 -260 105 -260 114 0 2 28 -4 63 -15 506 -152 1069 -69
1455 214 79 57 204 181 315 310 43 49 77 77 125 102 37 19 69 34 70 35 2 0
-13 -30 -33 -67z m15 -438 l145 -145 -30 -25 -30 -24 -137 137 c-76 75 -138
140 -138 145 0 10 33 56 40 57 3 0 70 -65 150 -145z m-2268 -58 c82 -63 195
-135 273 -176 l40 -20 -626 -1 -627 0 -6 23 c-8 30 -8 222 1 230 3 4 199 7
435 7 l428 0 82 -63z m2083 -107 l140 -140 -28 -27 -27 -28 -142 142 -142 142
24 26 c13 14 26 25 29 25 4 0 69 -63 146 -140z m1375 -1047 c0 -72 -100 -195
-195 -239 -97 -45 -121 -23 -63 57 60 83 204 208 241 209 12 0 17 -8 17 -27z"/>
<path d="M4970 6360 c-290 -36 -531 -149 -744 -351 -205 -194 -330 -413 -387
-679 -29 -135 -32 -422 -6 -537 59 -257 184 -481 377 -673 122 -122 240 -204
378 -265 472 -208 998 -123 1397 224 127 110 225 241 313 416 93 187 132 354
132 570 0 216 -41 385 -140 581 -179 354 -522 616 -908 693 -116 24 -308 33
-412 21z m450 -94 c290 -76 537 -244 723 -489 45 -61 137 -241 166 -326 23
-67 51 -189 51 -222 0 -19 -19 -19 -1124 -19 -619 0 -1127 -3 -1129 -7 -2 -5
-7 -20 -11 -35 l-6 -27 495 6 495 6 0 -131 0 -132 -506 0 -505 0 3 -32 3 -33
503 4 502 4 0 -512 0 -511 -37 0 c-69 0 -226 30 -317 61 -309 103 -574 335
-725 633 -41 81 -88 210 -105 289 -6 27 -6 27 44 27 52 0 55 4 44 48 -5 19
-13 22 -54 22 l-47 0 -7 53 c-3 28 -6 85 -6 125 l0 72 55 0 55 0 0 35 0 35
-50 0 -50 0 6 43 c25 170 108 375 213 524 171 243 440 425 729 495 174 41 422
39 592 -6z m919 -1122 l32 -7 -3 -121 -3 -121 -431 -5 c-407 -5 -433 -6 -453
-24 -20 -18 -21 -28 -21 -222 0 -111 3 -210 6 -219 16 -41 48 -45 379 -45
l316 0 -22 -39 c-12 -22 -48 -69 -81 -105 l-60 -66 -253 0 c-214 0 -256 -2
-269 -15 -12 -13 -13 -32 -2 -47 0 -1 100 -4 221 -8 l219 -5 -69 -51 c-174
-129 -399 -212 -621 -230 l-84 -7 0 665 c0 366 3 668 7 671 8 9 1150 9 1192 1z
m7 -326 c10 -11 -50 -191 -95 -286 l-40 -82 -343 2 -343 3 -3 175 c-1 96 0
181 3 188 4 12 71 13 409 11 222 -2 408 -7 412 -11z"/>
<path d="M5110 2244 c-873 -25 -1369 -87 -1129 -141 250 -57 1210 -90 2149
-73 614 11 938 30 1155 66 104 18 135 37 89 55 -75 29 -298 53 -694 75 -248
13 -1303 26 -1570 18z"/>
</g>
</svg>
